<mxfile host="65bd71144e">
    <diagram id="O04sBBABxI2YbjR2Nal6" name="Page-1">
        <mxGraphModel dx="1071" dy="380" grid="1" gridSize="10" guides="1" tooltips="1" connect="1" arrows="1" fold="1" page="1" pageScale="1" pageWidth="850" pageHeight="1100" math="0" shadow="0">
            <root>
                <mxCell id="0"/>
                <mxCell id="1" parent="0"/>
                <mxCell id="2" value="" style="whiteSpace=wrap;html=1;" parent="1" vertex="1">
                    <mxGeometry x="80" y="40" width="720" height="550" as="geometry"/>
                </mxCell>
                <mxCell id="5" value="Global scope" style="text;strokeColor=none;align=center;fillColor=none;html=1;verticalAlign=middle;whiteSpace=wrap;rounded=0;" parent="1" vertex="1">
                    <mxGeometry x="80" y="10" width="90" height="30" as="geometry"/>
                </mxCell>
                <mxCell id="6" value="window object&amp;nbsp;" style="text;strokeColor=none;align=center;fillColor=none;html=1;verticalAlign=middle;whiteSpace=wrap;rounded=0;" parent="1" vertex="1">
                    <mxGeometry x="60" y="50" width="155" height="30" as="geometry"/>
                </mxCell>
                <mxCell id="10" value="a : 50" style="text;strokeColor=none;align=center;fillColor=none;html=1;verticalAlign=middle;whiteSpace=wrap;rounded=0;" parent="1" vertex="1">
                    <mxGeometry x="95" y="80" width="60" height="30" as="geometry"/>
                </mxCell>
                <mxCell id="13" value="add:" style="text;strokeColor=none;align=center;fillColor=none;html=1;verticalAlign=middle;whiteSpace=wrap;rounded=0;" parent="1" vertex="1">
                    <mxGeometry x="80" y="110" width="60" height="30" as="geometry"/>
                </mxCell>
                <mxCell id="18" value="Local scope" style="text;strokeColor=none;align=center;fillColor=none;html=1;verticalAlign=middle;whiteSpace=wrap;rounded=0;" parent="1" vertex="1">
                    <mxGeometry x="100" y="310" width="260" height="30" as="geometry"/>
                </mxCell>
                <mxCell id="24" value="&#10;&lt;div style=&quot;color: rgb(102, 136, 204); background-color: rgb(0, 12, 24); font-family: &amp;quot;cascadia code&amp;quot;, Consolas, &amp;quot;Courier New&amp;quot;, monospace, Consolas, &amp;quot;Courier New&amp;quot;, monospace; font-weight: normal; font-size: 14px; line-height: 19px;&quot;&gt;&lt;div&gt;&lt;span style=&quot;color: #9966b8;font-style: italic;&quot;&gt;function&lt;/span&gt;&lt;span style=&quot;color: #6688cc;&quot;&gt; &lt;/span&gt;&lt;span style=&quot;color: #ddbb88;&quot;&gt;add&lt;/span&gt;&lt;span style=&quot;color: #6688cc;&quot;&gt; (){&lt;/span&gt;&lt;/div&gt;&lt;div&gt;&lt;span style=&quot;color: #6688cc;&quot;&gt;&amp;nbsp; &amp;nbsp; &lt;/span&gt;&lt;span style=&quot;color: #9966b8;font-style: italic;&quot;&gt;const&lt;/span&gt;&lt;span style=&quot;color: #6688cc;&quot;&gt; &lt;/span&gt;&lt;span style=&quot;color: #6688cc;&quot;&gt;a&lt;/span&gt;&lt;span style=&quot;color: #6688cc;&quot;&gt; &lt;/span&gt;&lt;span style=&quot;color: #225588;&quot;&gt;=&lt;/span&gt;&lt;span style=&quot;color: #6688cc;&quot;&gt; &lt;/span&gt;&lt;span style=&quot;color: #f280d0;&quot;&gt;9&lt;/span&gt;&lt;/div&gt;&lt;div&gt;&lt;span style=&quot;color: #6688cc;&quot;&gt;&amp;nbsp; &amp;nbsp; &lt;/span&gt;&lt;span style=&quot;color: #9966b8;font-style: italic;&quot;&gt;const&lt;/span&gt;&lt;span style=&quot;color: #6688cc;&quot;&gt; &lt;/span&gt;&lt;span style=&quot;color: #6688cc;&quot;&gt;b&lt;/span&gt;&lt;span style=&quot;color: #6688cc;&quot;&gt; &lt;/span&gt;&lt;span style=&quot;color: #225588;&quot;&gt;=&lt;/span&gt;&lt;span style=&quot;color: #6688cc;&quot;&gt; &lt;/span&gt;&lt;span style=&quot;color: #f280d0;&quot;&gt;3&lt;/span&gt;&lt;/div&gt;&lt;div&gt;&lt;span style=&quot;color: #6688cc;&quot;&gt;&amp;nbsp; &amp;nbsp; &lt;/span&gt;&lt;span style=&quot;color: #6688cc;&quot;&gt;console&lt;/span&gt;&lt;span style=&quot;color: #6688cc;&quot;&gt;.&lt;/span&gt;&lt;span style=&quot;color: #ddbb88;&quot;&gt;log&lt;/span&gt;&lt;span style=&quot;color: #6688cc;&quot;&gt;(&lt;/span&gt;&lt;span style=&quot;color: #6688cc;&quot;&gt;a&lt;/span&gt;&lt;span style=&quot;color: #225588;&quot;&gt;+&lt;/span&gt;&lt;span style=&quot;color: #6688cc;&quot;&gt;b&lt;/span&gt;&lt;span style=&quot;color: #6688cc;&quot;&gt;)&lt;/span&gt;&lt;/div&gt;&lt;div&gt;&lt;span style=&quot;color: #6688cc;&quot;&gt;&amp;nbsp; &amp;nbsp; &lt;/span&gt;&lt;span style=&quot;color: #6688cc;&quot;&gt;console&lt;/span&gt;&lt;span style=&quot;color: #6688cc;&quot;&gt;.&lt;/span&gt;&lt;span style=&quot;color: #ddbb88;&quot;&gt;log&lt;/span&gt;&lt;span style=&quot;color: #6688cc;&quot;&gt;(&lt;/span&gt;&lt;span style=&quot;color: #6688cc;&quot;&gt;userName&lt;/span&gt;&lt;span style=&quot;color: #6688cc;&quot;&gt;)&lt;/span&gt;&lt;/div&gt;&lt;div&gt;&lt;span style=&quot;color: #6688cc;&quot;&gt;}&lt;/span&gt;&lt;/div&gt;&lt;/div&gt;&#10;&#10;" style="whiteSpace=wrap;html=1;" parent="1" vertex="1">
                    <mxGeometry x="110" y="140" width="210" height="140" as="geometry"/>
                </mxCell>
                <mxCell id="28" value="Local(add)" style="text;strokeColor=none;align=center;fillColor=none;html=1;verticalAlign=middle;whiteSpace=wrap;rounded=0;" parent="1" vertex="1">
                    <mxGeometry x="95" y="350" width="115" height="30" as="geometry"/>
                </mxCell>
                <mxCell id="30" value="" style="whiteSpace=wrap;html=1;rounded=0;fontFamily=Helvetica;fontSize=12;fontColor=default;fillColor=none;gradientColor=none;" parent="1" vertex="1">
                    <mxGeometry x="95" y="390" width="155" height="110" as="geometry"/>
                </mxCell>
                <mxCell id="32" value="this {}&lt;br&gt;" style="text;strokeColor=none;align=center;fillColor=none;html=1;verticalAlign=middle;whiteSpace=wrap;rounded=0;fontFamily=Helvetica;fontSize=12;fontColor=default;" parent="1" vertex="1">
                    <mxGeometry x="100" y="410" width="90" height="30" as="geometry"/>
                </mxCell>
                <mxCell id="33" value="a : 10&lt;br&gt;b : 3" style="text;strokeColor=none;align=center;fillColor=none;html=1;verticalAlign=middle;whiteSpace=wrap;rounded=0;fontFamily=Helvetica;fontSize=12;fontColor=default;" parent="1" vertex="1">
                    <mxGeometry x="115" y="440" width="85" height="30" as="geometry"/>
                </mxCell>
                <mxCell id="34" value="" style="whiteSpace=wrap;html=1;rounded=0;fontFamily=Helvetica;fontSize=12;fontColor=default;fillColor=none;gradientColor=none;" parent="1" vertex="1">
                    <mxGeometry x="320" y="390" width="155" height="110" as="geometry"/>
                </mxCell>
                <mxCell id="36" value="this {}&lt;br&gt;" style="text;strokeColor=none;align=center;fillColor=none;html=1;verticalAlign=middle;whiteSpace=wrap;rounded=0;fontFamily=Helvetica;fontSize=12;fontColor=default;" parent="1" vertex="1">
                    <mxGeometry x="335" y="400" width="90" height="30" as="geometry"/>
                </mxCell>
                <mxCell id="37" value="a : 15&lt;br&gt;b : 5" style="text;strokeColor=none;align=center;fillColor=none;html=1;verticalAlign=middle;whiteSpace=wrap;rounded=0;fontFamily=Helvetica;fontSize=12;fontColor=default;" parent="1" vertex="1">
                    <mxGeometry x="337.5" y="440" width="85" height="30" as="geometry"/>
                </mxCell>
                <mxCell id="38" value="Local(subtract)" style="text;strokeColor=none;align=center;fillColor=none;html=1;verticalAlign=middle;whiteSpace=wrap;rounded=0;" parent="1" vertex="1">
                    <mxGeometry x="310" y="350" width="115" height="30" as="geometry"/>
                </mxCell>
                <mxCell id="39" value="&lt;span style=&quot;color: rgb(236, 236, 236); font-family: ui-sans-serif, -apple-system, system-ui, &amp;quot;Segoe UI&amp;quot;, Roboto, Ubuntu, Cantarell, &amp;quot;Noto Sans&amp;quot;, sans-serif, Helvetica, &amp;quot;Apple Color Emoji&amp;quot;, Arial, &amp;quot;Segoe UI Emoji&amp;quot;, &amp;quot;Segoe UI Symbol&amp;quot;; font-size: 16px; text-align: start; background-color: rgb(33, 33, 33);&quot;&gt;Once a new local variable is created, the previous one is deleted&lt;/span&gt;" style="text;strokeColor=none;align=center;fillColor=none;html=1;verticalAlign=middle;whiteSpace=wrap;rounded=0;" vertex="1" parent="1">
                    <mxGeometry x="520" y="390" width="250" height="100" as="geometry"/>
                </mxCell>
                <mxCell id="48" value="" style="whiteSpace=wrap;html=1;" vertex="1" parent="1">
                    <mxGeometry x="460" y="100" width="310" height="170" as="geometry"/>
                </mxCell>
                <mxCell id="49" value="Script scope" style="text;strokeColor=none;align=center;fillColor=none;html=1;verticalAlign=middle;whiteSpace=wrap;rounded=0;" vertex="1" parent="1">
                    <mxGeometry x="460" y="60" width="195" height="35" as="geometry"/>
                </mxCell>
                <mxCell id="50" value="userName&amp;nbsp; : Anjali" style="text;strokeColor=none;align=center;fillColor=none;html=1;verticalAlign=middle;whiteSpace=wrap;rounded=0;" vertex="1" parent="1">
                    <mxGeometry x="520" y="140" width="115" height="30" as="geometry"/>
                </mxCell>
                <mxCell id="51" value="age : 21" style="text;strokeColor=none;align=center;fillColor=none;html=1;verticalAlign=middle;whiteSpace=wrap;rounded=0;" vertex="1" parent="1">
                    <mxGeometry x="540" y="180" width="60" height="30" as="geometry"/>
                </mxCell>
            </root>
        </mxGraphModel>
    </diagram>
</mxfile>